<svg xmlns="http://www.w3.org/2000/svg" viewBox="0 0 64 64" fill="none">
  <path d="M30.3 6.1 6.6 15.8a2.4 2.4 0 0 0 0 4.5l23.9 9.8a8 8 0 0 0 6 0l23.9-9.8a2.4 2.4 0 0 0 0-4.5L36.3 6.1a8 8 0 0 0-6 0Z" fill="#FCB400"/>
  <path d="M34 35.5V57a2 2 0 0 0 2.8 1.8l22.4-9.7A2 2 0 0 0 60.4 47V25.5a2 2 0 0 0-2.8-1.8L35.2 33.4A2 2 0 0 0 34 35.5Z" fill="#18BFFF"/>
  <path d="M28.5 36.8 5.2 24a1.6 1.6 0 0 0-2.4 1.4v21.1a3.2 3.2 0 0 0 1.8 2.9L28 60a1.6 1.6 0 0 0 2.4-1.4V38.5a3.2 3.2 0 0 0-1.8-1.7Z" fill="#F82B60"/>
</svg>
